HIERARCHY
ROOT SpineBase
{
  OFFSET 0.000000 0.000000 0.000000
  CHANNELS 6 Xposition Yposition Zposition Zrotation Xrotation Yrotation
  JOINT SpineMid
  {
    OFFSET 0.000000 24.847802 0.000000
    CHANNELS 3 Zrotation Xrotation Yrotation
    JOINT SpineShoulder
    {
      OFFSET -0.102623 18.412096 -0.748453
      CHANNELS 3 Zrotation Xrotation Yrotation
      JOINT Neck
      {
        OFFSET -0.025949 6.039398 -0.550449
        CHANNELS 3 Zrotation Xrotation Yrotation
        JOINT Head
        {
          OFFSET 5.283640 10.747096 -1.813947
          CHANNELS 3 Zrotation Xrotation Yrotation
          End Site
          {
            OFFSET 0 0 0
          }
        }
      }
      JOINT ShoulderLeft
      {
        OFFSET -13.830442 -1.081867 -9.829637
        CHANNELS 3 Zrotation Xrotation Yrotation
        JOINT ElbowLeft
        {
          OFFSET -11.433044 -15.356209 1.646069
          CHANNELS 3 Zrotation Xrotation Yrotation
          JOINT WristLeft
          {
            OFFSET 2.138979 -14.073719 -20.044248
            CHANNELS 3 Zrotation Xrotation Yrotation
            JOINT HandLeft
            {
              OFFSET 1.606950 -7.544464 -6.214445
              CHANNELS 3 Zrotation Xrotation Yrotation
              JOINT HandTipLeft
              {
                OFFSET 2.040942 -5.795586 -2.345655
                CHANNELS 3 Zrotation Xrotation Yrotation
                End Site
                {
                  OFFSET 0 0 0
                }
              }
              JOINT ThumbLeft
              {
                OFFSET 0.013284 3.520244 -2.600534
                CHANNELS 3 Zrotation Xrotation Yrotation
                End Site
                {
                  OFFSET 0 0 0
                }
              }
            }
          }
        }
      }
      JOINT ShoulderRight
      {
        OFFSET 10.245231 -6.176104 1.994404
        CHANNELS 3 Zrotation Xrotation Yrotation
        JOINT ElbowRight
        {
          OFFSET -4.789581 -15.732608 -9.892001
          CHANNELS 3 Zrotation Xrotation Yrotation
          JOINT WristRight
          {
            OFFSET 10.044538 -20.580645 0.230278
            CHANNELS 3 Zrotation Xrotation Yrotation
            JOINT HandRight
            {
              OFFSET 2.975591 -2.807497 -5.179371
              CHANNELS 3 Zrotation Xrotation Yrotation
              JOINT HandTipRight
              {
                OFFSET 4.044493 -1.348730 4.991038
                CHANNELS 3 Zrotation Xrotation Yrotation
                End Site
                {
                  OFFSET 0 0 0
                }
              }
              JOINT ThumbRight
              {
                OFFSET -0.300689 -0.382062 -2.243372
                CHANNELS 3 Zrotation Xrotation Yrotation
                End Site
                {
                  OFFSET 0 0 0
                }
              }
            }
          }
        }
      }
    }
  }
  JOINT HipLeft
  {
    OFFSET -5.779597 0.299840 -6.192846
    CHANNELS 3 Zrotation Xrotation Yrotation
    JOINT KneeLeft
    {
      OFFSET 9.216575 -2.395311 -30.418987
      CHANNELS 3 Zrotation Xrotation Yrotation
      JOINT AnkleLeft
      {
        OFFSET -6.410062 -36.358302 1.477985
        CHANNELS 3 Zrotation Xrotation Yrotation
        JOINT FootLeft
        {
          OFFSET 1.991627 -7.113029 -9.915014
          CHANNELS 3 Zrotation Xrotation Yrotation
          End Site
          {
            OFFSET 0 0 0
          }
        }
      }
    }
  }
  JOINT HipRight
  {
    OFFSET 5.547458 -0.126284 -0.663038
    CHANNELS 3 Zrotation Xrotation Yrotation
    JOINT KneeRight
    {
      OFFSET 26.085247 -0.196978 -14.593028
      CHANNELS 3 Zrotation Xrotation Yrotation
      JOINT AnkleRight
      {
        OFFSET -6.109939 -36.200012 -5.537843
        CHANNELS 3 Zrotation Xrotation Yrotation
        JOINT FootRight
        {
          OFFSET -7.750436 -8.601759 -1.854464
          CHANNELS 3 Zrotation Xrotation Yrotation
          End Site
          {
            OFFSET 0 0 0
          }
        }
      }
    }
  }
}
MOTION
Frames: 12
Frame Time: 0.033333
11.238261 52.587153 395.754677 -0.000000 0.000000 -26.021384 -0.000000 0.000000 26.021384 -0.000000 0.000000 0.000000 -0.000000 0.000000 0.000000 0.000000 0.000000 0.000000 -0.000000 0.000000 0.000000 -0.000000 0.000000 0.000000 -0.000000 0.000000 0.000000 -0.000000 0.000000 0.000000 0.000000 0.000000 0.000000 0.000000 0.000000 0.000000 -0.000000 0.000000 0.000000 -0.000000 0.000000 0.000000 -0.000000 0.000000 0.000000 -0.000000 0.000000 0.000000 0.000000 0.000000 0.000000 0.000000 0.000000 0.000000 -0.000000 0.000000 26.021384 -0.000000 0.000000 0.000000 -0.000000 0.000000 0.000000 0.000000 0.000000 0.000000 -0.000000 0.000000 26.021384 -0.000000 0.000000 0.000000 -0.000000 0.000000 0.000000 0.000000 0.000000 0.000000
11.264129 52.684358 395.733692 0.067547 -0.001738 -25.763862 -0.061588 -0.027795 25.763848 -0.000000 0.000000 0.000000 -0.000000 0.000000 0.000000 0.000000 0.000000 0.000000 1.258516 0.485306 -0.233762 -2.763227 -3.361267 1.963553 4.277164 5.422146 -3.534252 -1.345871 -1.510494 1.442283 0.000000 0.000000 0.000000 0.000000 0.000000 0.000000 -0.000000 0.000000 0.000000 -0.000000 0.000000 0.000000 -0.177094 0.532500 0.885760 -8.131371 12.450246 21.185194 0.000000 0.000000 0.000000 0.000000 0.000000 0.000000 0.296659 -2.426081 26.097194 1.267840 3.283625 -0.517274 -0.525123 -0.976939 0.146248 0.000000 0.000000 0.000000 -0.061588 -0.027795 25.763848 -0.000000 0.000000 0.000000 -0.000000 0.000000 0.000000 0.000000 0.000000 0.000000
11.269680 52.771039 395.717901 0.096311 -0.002274 -25.504981 -0.087905 -0.039418 25.504952 -0.000000 0.000000 0.000000 -0.000000 0.000000 0.000000 0.000000 0.000000 0.000000 2.293450 0.890060 -0.441572 -4.768757 -6.028757 3.252857 7.681998 10.073810 -6.245328 -2.360708 -2.901748 2.493579 0.000000 0.000000 0.000000 0.000000 0.000000 0.000000 -0.000000 0.000000 0.000000 -0.000000 0.000000 0.000000 -0.282691 0.970561 1.532577 -24.604768 21.983035 51.979739 0.000000 0.000000 0.000000 0.000000 0.000000 0.000000 0.556791 -4.401643 26.069923 2.321208 5.968061 -0.951113 -0.949871 -1.781749 0.260223 0.000000 0.000000 0.000000 -0.671560 -0.862959 25.085570 0.877787 0.498352 0.410969 -0.000000 0.000000 0.000000 0.000000 0.000000 0.000000
11.254913 52.847198 395.707302 0.086059 -0.001602 -25.242533 -0.078525 -0.035251 25.242510 -0.000000 0.000000 0.000000 -0.000000 0.000000 0.000000 0.000000 0.000000 0.000000 3.094548 1.212974 -0.617200 -6.105406 -8.033329 3.971485 9.739683 14.020909 -7.686431 -2.730675 -3.904462 2.975890 0.000000 0.000000 0.000000 0.000000 0.000000 0.000000 -0.000000 0.000000 0.000000 -0.000000 0.000000 0.000000 -0.313294 1.319174 1.943959 -36.022762 22.916902 71.814194 0.000000 0.000000 0.000000 0.000000 0.000000 0.000000 0.776243 -5.915331 25.927789 3.139797 8.047913 -1.262042 -1.274983 -2.413128 0.345843 0.000000 0.000000 0.000000 -0.899023 -1.178005 24.628547 1.222156 0.696716 0.597844 -1.014610 0.204499 0.035997 0.000000 0.000000 0.000000
11.219828 52.912835 395.701895 0.036620 0.000285 -24.974577 -0.033076 -0.015720 24.974572 -0.000000 0.000000 0.000000 -0.000000 0.000000 0.000000 0.000000 0.000000 0.000000 3.653341 1.453157 -0.755526 -6.821835 -9.405413 4.178914 10.002797 17.247389 -7.449296 -2.226888 -4.242688 2.815324 0.000000 0.000000 0.000000 0.000000 0.000000 0.000000 -0.000000 0.000000 0.000000 -0.000000 0.000000 0.000000 -0.265554 1.581346 2.120672 -38.215403 22.299951 76.833786 0.000000 0.000000 0.000000 0.000000 0.000000 0.000000 0.953811 -6.961889 25.662043 3.706294 9.523270 -1.418228 -1.501083 -2.870403 0.406178 0.000000 0.000000 0.000000 -1.052123 -1.416797 24.177397 1.503632 0.860535 0.773142 -1.296053 0.365589 -0.045349 0.000000 0.000000 0.000000
11.164425 52.967948 395.701681 -0.052115 0.003389 -24.699378 0.048763 0.018698 24.699371 -0.000000 0.000000 0.000000 -0.000000 0.000000 0.000000 0.000000 0.000000 0.000000 3.962873 1.609841 -0.852611 -6.933061 -10.163655 3.895686 8.180326 19.586664 -5.283595 -0.756232 -3.697235 2.059082 0.000000 0.000000 0.000000 0.000000 0.000000 0.000000 -0.000000 0.000000 0.000000 -0.000000 0.000000 0.000000 -0.136059 1.757955 2.060495 -32.468226 22.042547 69.248701 0.000000 0.000000 0.000000 0.000000 0.000000 0.000000 1.091582 -7.539257 25.266866 4.008594 10.395858 -1.396821 -1.628650 -3.153284 0.443422 0.000000 0.000000 0.000000 -1.129388 -1.580462 23.731076 0.894065 1.346369 1.017351 -0.726016 0.203551 -0.243122 0.000000 0.000000 0.000000
11.106999 53.025263 395.704455 -0.142900 0.009097 -24.303636 0.133980 0.050523 24.303588 -0.000000 0.000000 0.000000 -0.000000 0.000000 0.000000 0.000000 0.000000 0.000000 4.049253 1.970023 -1.134196 -6.356543 -11.025516 3.161995 3.686879 22.046718 -0.408403 1.252835 -2.391881 0.818263 0.000000 0.000000 0.000000 0.000000 0.000000 0.000000 -0.000000 0.000000 0.000000 -0.000000 0.000000 0.000000 0.182627 1.880935 1.602473 -14.185772 16.311899 37.233056 0.000000 0.000000 0.000000 0.000000 0.000000 0.000000 1.189962 -7.989294 24.785501 4.345811 11.171131 -1.424724 -1.822906 -3.471068 0.480855 0.000000 0.000000 0.000000 -1.207864 -1.741007 23.226647 1.048961 1.480027 1.129439 -1.435654 0.748474 -0.565175 0.000000 0.000000 0.000000
11.075638 53.063818 395.678733 -0.219526 0.091132 -23.943413 0.237619 0.005802 23.943575 -0.000000 0.000000 0.000000 -0.686299 -0.576205 0.163375 0.000000 0.000000 0.000000 3.538622 1.744565 -0.997985 -4.952186 -10.319959 1.775746 -0.968766 21.301903 4.167411 3.225388 -0.578060 -0.242437 0.000000 0.000000 0.000000 0.000000 0.000000 0.000000 -0.000000 0.000000 0.000000 -0.000000 0.000000 0.000000 0.003553 1.710601 1.757931 2.787904 -4.553662 0.576847 0.000000 0.000000 0.000000 0.000000 0.000000 0.000000 1.145492 -7.264491 24.086441 3.971810 10.415734 -1.026056 -1.753566 -3.435858 0.480161 0.000000 0.000000 0.000000 -1.237116 -1.931747 22.671144 1.236508 1.574245 1.315240 -1.976174 1.038545 -0.692317 0.000000 0.000000 0.000000
11.081832 53.057276 395.777664 -0.213796 -0.047707 -23.921053 0.176088 0.130298 23.920763 -0.000000 0.000000 0.000000 -0.725825 -0.762061 0.246280 0.000000 0.000000 0.000000 2.135141 0.918764 -0.479339 -2.524793 -8.398145 -0.128839 -5.477013 18.780263 8.354270 6.726260 3.986815 -0.817608 0.000000 0.000000 0.000000 0.000000 0.000000 0.000000 -0.000000 0.000000 0.000000 0.668734 0.536073 0.265249 -0.562987 1.658923 1.795690 2.829078 -8.609902 -7.276711 0.000000 0.000000 0.000000 0.000000 0.000000 0.000000 1.117542 -7.442341 24.240559 3.914105 10.346257 -1.135253 -1.582160 -3.083820 0.435367 0.000000 0.000000 0.000000 -1.448758 -2.017360 23.223515 1.548500 1.537292 0.747577 -3.565308 -1.176645 1.619362 0.000000 0.000000 0.000000
10.889868 53.043870 395.853470 -0.563591 -0.128234 -23.824918 0.463773 0.344958 23.822891 -0.000000 0.000000 0.000000 -0.789236 -0.953436 0.327403 0.000000 0.000000 0.000000 4.092173 2.536205 -1.586215 -3.831969 -8.782093 0.347722 -8.602312 13.803169 10.566340 8.023722 4.530478 -2.603280 0.000000 0.000000 0.000000 0.000000 0.000000 0.000000 -0.000000 0.000000 0.000000 -0.000000 0.000000 0.000000 0.475810 2.833992 2.013743 3.444836 -11.826774 -9.267303 0.000000 0.000000 0.000000 0.000000 0.000000 0.000000 1.281428 -6.286919 23.622620 3.204987 9.024849 -0.448880 -1.263232 -2.629600 0.382238 0.000000 0.000000 0.000000 -0.984778 -1.562111 23.048633 2.079962 1.187079 0.737319 -2.933258 -0.351524 0.919630 0.000000 0.000000 0.000000
10.468577 53.043221 395.857765 -1.267213 -0.125877 -23.661111 1.110220 0.623803 23.653675 -0.000000 0.000000 0.000000 -0.809705 -1.091438 0.390239 0.000000 0.000000 0.000000 4.769118 3.083672 -1.980270 -4.683873 -7.258179 1.280785 -7.371390 7.940551 8.051621 7.697905 6.655054 -2.448717 0.000000 0.000000 0.000000 0.000000 0.000000 0.000000 -0.000000 0.000000 0.000000 -0.895381 0.190508 0.084774 3.544061 3.574902 -0.965415 1.714587 -10.382464 -2.171976 0.000000 0.000000 0.000000 0.000000 0.000000 0.000000 1.722386 -4.049177 22.095368 1.815288 6.275378 1.197400 0.782514 1.702473 -0.768115 0.000000 0.000000 0.000000 0.681628 0.055517 20.438597 -0.434270 1.030559 3.261734 4.484528 5.026128 -6.177672 0.000000 0.000000 0.000000
9.922310 53.060135 395.752025 -2.088851 0.009788 -23.505153 0.701476 0.643823 23.460581 0.322845 0.129567 -0.028587 0.042154 -1.603225 0.491211 0.000000 0.000000 0.000000 6.054253 3.006348 -2.127445 -5.895307 -7.129525 2.704244 -4.099278 5.837662 4.198477 5.041126 6.244547 -1.261180 0.000000 0.000000 0.000000 0.000000 0.000000 0.000000 -0.665814 2.563660 0.150356 -1.356791 -3.444758 -0.410804 3.686130 1.165789 -0.501545 2.253278 -1.809164 7.853252 0.000000 0.000000 0.000000 0.000000 0.000000 0.000000 2.422206 -1.724786 19.616124 0.540742 4.399809 3.552160 -0.271466 -1.816893 0.304686 0.000000 0.000000 0.000000 1.569272 0.353567 19.252928 -0.923843 0.733431 4.378242 11.356235 9.098418 -12.420811 0.000000 0.000000 0.000000
